M48
;DRILL file {KiCad 4.0.5} date Saturday, January 28, 2017 'PMt' 09:51:22 PM
;FORMAT={-:-/ absolute / inch / decimal}
FMAT,2
INCH,TZ
T1C0.039
T2C0.039
T3C0.040
T4C0.047
T5C0.047
T6C0.067
T7C0.150
%
G90
G05
M72
T1
X4.Y-3.55
X4.1Y-3.45
X4.1Y-3.65
T2
X3.075Y-4.
X3.175Y-4.
X3.275Y-4.
T3
X2.5Y-4.325
X2.5Y-4.425
X3.8Y-3.55
X3.8Y-3.65
X4.7Y-3.55
X4.7Y-3.65
X4.975Y-4.325
X4.975Y-4.425
T4
X2.675Y-4.3
X2.675Y-4.45
X2.675Y-4.6
X2.85Y-3.75
X2.85Y-3.9
X2.85Y-4.05
X3.3Y-4.3
X3.3Y-4.45
X3.3Y-4.6
X3.625Y-3.55
X3.625Y-3.7
X3.625Y-3.85
X3.975Y-4.3
X3.975Y-4.45
X3.975Y-4.6
X4.3Y-4.125
X4.45Y-4.125
X4.5Y-3.55
X4.5Y-3.7
X4.5Y-3.85
X4.525Y-4.725
X4.6Y-4.125
X4.675Y-4.725
X4.825Y-4.275
X4.825Y-4.425
X4.825Y-4.575
X4.825Y-4.725
T5
X2.225Y-4.45
T6
X2.125Y-4.35
X2.125Y-4.55
X2.325Y-4.35
X2.325Y-4.55
T7
X3.175Y-3.34
T0
M30
